<svg preserveAspectRatio="none" width="100%" height="100%" overflow="visible" style="display: block;" viewBox="0 0 24 24" fill="none" xmlns="http://www.w3.org/2000/svg">
<g id="icon">
<path id="Swatch" d="M0 4C0 1.79086 1.79086 0 4 0L20 0C22.2091 0 24 1.79086 24 4L24 20C24 22.2091 22.2091 24 20 24L4 24C1.79086 24 0 22.2091 0 20L0 4Z" fill="url(#paint0_linear_0_16)"/>
<path id="Polygon 2 (Stroke)" fill-rule="evenodd" clip-rule="evenodd" d="M11.1456 8.12087C11.7028 7.69038 12.5043 7.69038 13.0614 8.12087L19.4652 13.0432V15.8975L12.1035 10.293L5.17954 15.6428L4.50275 16.198V13.2685L11.1456 8.12087Z" fill="var(--fill-0, white)"/>
</g>
<defs>
<linearGradient id="paint0_linear_0_16" x1="0" y1="0" x2="24" y2="-2.50177e-09" gradientUnits="userSpaceOnUse">
<stop stop-color="#7F56D9"/>
<stop offset="1" stop-color="#9E77ED"/>
</linearGradient>
</defs>
</svg>
